<?xml version="1.0" encoding="UTF-8"?>
<svg width="183px" height="19px" viewBox="0 0 183 19" version="1.1" xmlns="http://www.w3.org/2000/svg" xmlns:xlink="http://www.w3.org/1999/xlink">
    <title>logo</title>
    <g id="App" stroke="none" stroke-width="1" fill="none" fill-rule="evenodd">
        <g id="Splash" transform="translate(-96.000000, -365.000000)">
            <g id="logo" transform="translate(96.000000, 365.000000)">
                <path d="M17.199,9.18 C18.009004,9.5400018 18.6344978,10.0304969 19.0755,10.6515 C19.5165022,11.2725031 19.737,12.0149957 19.737,12.879 C19.737,14.87701 18.9135082,16.379995 17.2665,17.388 C15.6194918,18.396005 13.500013,18.9 10.908,18.9 L-1.84741111e-13,18.9 L3.78,-1.81188398e-13 L13.797,-1.81188398e-13 C16.0110111,-1.81188398e-13 17.6939942,0.391496085 18.846,1.1745 C19.9980058,1.95750391 20.574,3.0689928 20.574,4.509 C20.574,5.57100531 20.277003,6.50249599 19.683,7.3035 C19.088997,8.104504 18.2610053,8.72999775 17.199,9.18 Z M9.153,4.455 L8.586,7.263 L11.826,7.263 C13.230007,7.263 13.932,6.71400549 13.932,5.616 C13.932,5.23799811 13.7880014,4.95000099 13.5,4.752 C13.2119986,4.55399901 12.7980027,4.455 12.258,4.455 L9.153,4.455 Z M11.259,14.445 C11.9070032,14.445 12.428998,14.2965015 12.825,13.9995 C13.221002,13.7024985 13.419,13.2750028 13.419,12.717 C13.419,12.320998 13.2705015,12.0150011 12.9735,11.799 C12.6764985,11.5829989 12.3030022,11.475 11.853,11.475 L7.749,11.475 L7.155,14.445 L11.259,14.445 Z M29.943,4.806 L29.511,7.02 L37.503,7.02 L36.585,11.61 L28.566,11.61 L28.08,14.094 L37.557,14.094 L36.585,18.9 L20.871,18.9 L24.651,-1.81188398e-13 L40.014,-1.81188398e-13 L39.042,4.806 L29.943,4.806 Z M45.927,4.941 L40.392,4.941 L41.391,-1.81188398e-13 L58.833,-1.81188398e-13 L57.834,4.941 L52.299,4.941 L49.518,18.9 L43.146,18.9 L45.927,4.941 Z" id="BET" fill="#FFCE06"></path>
                <path d="M93.533,-1.81188398e-13 L83.705,18.9 L76.874,18.9 L75.794,8.937 L70.61,18.9 L63.779,18.9 L61.511,-1.81188398e-13 L67.802,-1.81188398e-13 L69.017,10.773 L74.633,-1.81188398e-13 L80.492,-1.81188398e-13 L81.572,10.935 L87.269,-1.81188398e-13 L93.533,-1.81188398e-13 Z M95.342,-1.81188398e-13 L101.714,-1.81188398e-13 L97.934,18.9 L91.562,18.9 L95.342,-1.81188398e-13 Z M123.422,-1.81188398e-13 L119.642,18.9 L114.404,18.9 L108.977,10.098 L107.222,18.9 L101.012,18.9 L104.792,-1.81188398e-13 L110.03,-1.81188398e-13 L115.457,8.802 L117.212,-1.81188398e-13 L123.422,-1.81188398e-13 Z M145.13,-1.81188398e-13 L141.35,18.9 L136.112,18.9 L130.685,10.098 L128.93,18.9 L122.72,18.9 L126.5,-1.81188398e-13 L131.738,-1.81188398e-13 L137.165,8.802 L138.92,-1.81188398e-13 L145.13,-1.81188398e-13 Z M153.5,4.806 L153.068,7.02 L161.06,7.02 L160.142,11.61 L152.123,11.61 L151.637,14.094 L161.114,14.094 L160.142,18.9 L144.428,18.9 L148.208,-1.81188398e-13 L163.571,-1.81188398e-13 L162.599,4.806 L153.5,4.806 Z M182.714,6.21 C182.714,7.88400837 182.268504,9.34649374 181.3775,10.5975 C180.486496,11.8485063 179.231008,12.7799969 177.611,13.392 L180.77,18.9 L174.155,18.9 L171.482,14.148 L169.916,14.148 L168.971,18.9 L162.599,18.9 L166.379,-1.81188398e-13 L174.857,-1.81188398e-13 C177.341012,-1.81188398e-13 179.271493,0.544494555 180.6485,1.6335 C182.025507,2.72250544 182.714,4.24799019 182.714,6.21 Z M176.261,6.831 C176.261,5.55299361 175.469008,4.914 173.885,4.914 L171.752,4.914 L170.861,9.342 L173.48,9.342 C174.362004,9.342 175.045998,9.1215022 175.532,8.6805 C176.018002,8.23949779 176.261,7.62300396 176.261,6.831 Z" id="WINNER" fill="#FFFFFF"></path>
            </g>
        </g>
    </g>
</svg>