<?xml version="1.0" encoding="UTF-8"?>
<svg width="32px" height="32px" viewBox="0 0 32 32" version="1.1" xmlns="http://www.w3.org/2000/svg" xmlns:xlink="http://www.w3.org/1999/xlink">
    <title>spinner-duotone</title>
    <g id="App" stroke="none" stroke-width="1" fill="none" fill-rule="evenodd">
        <g id="Splash" transform="translate(-172.000000, -416.000000)" fill="#FFCE06" fill-rule="nonzero">
            <g id="spinner-duotone" transform="translate(172.000000, 416.000000)">
                <path d="M6.8075,22.1925 C5.15064575,22.1925 3.8075,23.5356458 3.8075,25.1925 C3.8075,26.8493542 5.15064575,28.1925 6.8075,28.1925 C8.46435425,28.1925 9.8075,26.8493542 9.8075,25.1925 C9.8075,23.5356458 8.46435425,22.1925 6.8075,22.1925 L6.8075,22.1925 Z M16,26 C14.3431458,26 13,27.3431458 13,29 C13,30.6568542 14.3431458,32 16,32 C17.6568542,32 19,30.6568542 19,29 C19,27.3431458 17.6568542,26 16,26 Z M29,13 C27.3431458,13 26,14.3431458 26,16 C26,17.6568542 27.3431458,19 29,19 C30.6568542,19 32,17.6568542 32,16 C32,14.3431458 30.6568542,13 29,13 Z M25.1925,22.1925 C23.5356458,22.1925 22.1925,23.5356458 22.1925,25.1925 C22.1925,26.8493542 23.5356458,28.1925 25.1925,28.1925 C26.8493542,28.1925 28.1925,26.8493542 28.1925,25.1925 C28.1925,23.5356458 26.8493542,22.1925 25.1925,22.1925 L25.1925,22.1925 Z M25.1925,9.8075 C26.8493542,9.8075 28.1925,8.46435425 28.1925,6.8075 C28.1925,5.15064575 26.8493542,3.8075 25.1925,3.8075 C23.5356458,3.8075 22.1925,5.15064575 22.1925,6.8075 C22.1925,8.46435425 23.5356458,9.8075 25.1925,9.8075 L25.1925,9.8075 Z" id="Shape" opacity="0.4"></path>
                <path d="M6.8075,3.8075 C5.15064575,3.8075 3.8075,5.15064575 3.8075,6.8075 C3.8075,8.46435425 5.15064575,9.8075 6.8075,9.8075 C8.46435425,9.8075 9.8075,8.46435425 9.8075,6.8075 C9.8075,5.15064575 8.46435425,3.8075 6.8075,3.8075 L6.8075,3.8075 Z M3,13 C1.34314575,13 0,14.3431458 0,16 C0,17.6568542 1.34314575,19 3,19 C4.65685425,19 6,17.6568542 6,16 C6,14.3431458 4.65685425,13 3,13 Z M16,0 C14.3431458,0 13,1.34314575 13,3 C13,4.65685425 14.3431458,6 16,6 C17.6568542,6 19,4.65685425 19,3 C19,1.34314575 17.6568542,0 16,0 L16,0 Z" id="Shape"></path>
            </g>
        </g>
    </g>
</svg>